<?xml version="1.0" encoding="utf-8"?>
<!-- Generator: Adobe Illustrator 16.0.0, SVG Export Plug-In . SVG Version: 6.00 Build 0)  -->
<!DOCTYPE svg PUBLIC "-//W3C//DTD SVG 1.1//EN" "http://www.w3.org/Graphics/SVG/1.1/DTD/svg11.dtd">
<svg version="1.1" id="Layer_1" xmlns="http://www.w3.org/2000/svg" xmlns:xlink="http://www.w3.org/1999/xlink" x="0px" y="0px"
	 width="595.28px" height="841.89px" viewBox="0 0 595.28 841.89" enable-background="new 0 0 595.28 841.89" xml:space="preserve">
<g>
	<path fill-rule="evenodd" clip-rule="evenodd" fill="#EC4942" d="M267.934,252.192c-5.068,0.856-9.343,2.521-11.748,7.299
		c-1.578,3.134-2.927,6.343-2.332,9.907c0.407,2.444,0.985,4.873,1.266,7.332c0.312,2.725,0.241,5.528-1.341,7.898
		c-1.689,2.53-5.059,3.834-8.091,2.35c-3.158-1.546-4.489-4.567-3.974-8.849c0.313-2.591,1.173-5.024,2.277-7.365
		c1.818-3.866,3.098-7.917,3.548-12.141c0.463-4.337-0.424-8.615-1.17-12.895c-0.742-4.254-3.636-7.063-6.411-10.098
		c0.347,2.121,0.638,4.253,1.053,6.361c1.117,5.661-0.078,10.874-2.7,15.928c-1.834,3.535-5.065,5.896-7.211,9.149
		c-0.615,0.93-1.384,1.767-2.143,2.591c-3.777,4.103-5.119,9.042-5.122,14.487c-0.004,6.159,0.941,12.264,0.881,18.432
		c-0.034,3.283-3.044,9.547-7.486,10.461c-2.504,0.515-5.282-0.766-6.515-3.058c-2.215-4.122-2.142-8.528-1.782-12.972
		c0.205-2.523,0.39-5.068,0.89-7.541c0.497-2.455,1.098-4.911,2.026-7.306c-2.537,1.361-4.422,3.402-6.059,5.661
		c-4.549,6.277-5.703,13.497-5.824,21.033c-0.077,4.851,0.213,9.642,1.469,14.336c0.994,3.717,3.183,6.869,5.023,10.178
		c0.431,0.775,1.203,0.545,1.946,0.226c4.686-2.011,8.898-4.85,13.077-7.691c6.336-4.308,12.099-9.368,17.872-14.394
		c1.282-1.115,2.375-2.448,3.57-3.666c0.32-0.327,0.531-0.829,1.281-0.824c-0.865,1.495-1.872,2.758-2.899,4.006
		c-7.266,8.818-15.666,16.465-24.788,23.274c-5.263,3.929-10.872,7.468-16.933,10.057c-4.626,1.976-9.191,4.252-14.303,4.92
		c-3.928,0.513-7.814,0.919-11.727-0.17c-7.52-2.094-13.473-7.66-14.882-15.688c-1.469-8.365,0.189-16.152,3.423-23.774
		c0.144-0.338,0.21-0.764,0.784-0.868c0.094,1.048-0.323,1.98-0.511,2.938c-1.635,8.335-1.998,16.675,0.802,24.807
		c1.835,5.33,5.852,8.832,11.355,9.878c3.559,0.676,7.294,0.022,10.793-1.222c3.898-1.386,7.763-2.852,11.358-4.948
		c1.977-1.153,2.145-1.359,0.99-3.313c-8.402-14.218-13.208-29.875-18.154-45.465c-2.548-8.03-4.63-16.195-5.961-24.526
		c-0.259-1.626-0.158-3.307-0.273-4.959c-0.063-0.896,0.497-0.806,1.1-0.922c5.185-0.997,10.526-1.133,15.606-2.665
		c5.668-1.71,11.12-3.963,16.43-6.612c2.776-1.384,5.617-2.651,8.361-4.111c6.49-3.453,12.435-7.681,17.983-12.499
		c2.194-1.906,4.209-4.037,6.755-5.533c0.8-0.471,1.363-0.612,2.234-0.068c4.979,3.108,10.061,6.05,15.003,9.212
		c5.144,3.29,10.427,6.341,15.715,9.377c2.753,1.58,5.696,2.828,8.558,4.216c0.49,0.238,0.857,0.346,0.68,1.139
		c-1.011,4.53-2.969,8.507-6.303,11.8c-2.315,2.288-5.128,3.232-8.244,2.924c-1.633-0.162-3.07-1.161-3.736-2.901
		c-0.599-1.568-0.939-3.182-0.912-4.852c0.019-1.183,0.347-2.263,1.207-3.188C265.167,255.724,266.605,254.139,267.934,252.192z"/>
	<path fill-rule="evenodd" clip-rule="evenodd" fill="#4B8DCA" d="M283.269,298.093c-1.426,2.943-2.648,5.69-4.068,8.333
		c-1.608,2.997-3.242,5.998-5.87,8.302c-1.563,1.371-3.31,1.579-5.172,0.984c-1.981-0.633-2.94-2.046-2.996-4.174
		c-0.043-1.71,0.358-3.258,1.054-4.792c2.79-6.144,6.473-11.781,9.921-17.547c4.477-7.486,9.185-14.835,13.447-22.447
		c1.329-2.372,2.384-4.902,3.466-7.402c0.408-0.943,0.887-1.123,1.791-0.777c4.759,1.82,9.53,3.613,14.295,5.415
		c0.382,0.144,0.834,0.089,0.636,0.833c-1.053,3.954-1.709,8.003-2.255,12.04c-2.046,15.136-8.032,28.827-15.175,42.091
		c-5.784,10.737-12.307,21.043-19.35,30.982c-3.396,4.794-7.672,8.955-11.421,13.509c-4.555,5.531-9.708,10.389-15.489,14.607
		c-1.701,1.242-3.566,2.197-5.325,3.332c-0.835,0.538-1.353,0.085-1.941-0.359c-4.55-3.44-9.062-6.915-13.201-10.867
		c-4.2-4.008-8.469-7.938-11.872-12.68c-0.842-1.175-1.768-1.289-3.027-0.729c-3.846,1.707-7.654,3.491-11.686,4.776
		c-7.063,2.25-14.124,2.491-21.225,0.352c-2.564-0.771-5.119-1.928-7.073-3.61c-1.941-1.67-4.072-3.308-5.539-5.523
		c-0.168-0.253-0.413-0.518-0.217-0.774c0.299-0.395,0.683-0.215,1.03,0.014c2.182,1.447,4.483,2.675,6.826,3.838
		c4.502,2.236,9.242,2.643,14.188,2.228c6.566-0.55,12.563-2.858,18.337-5.754c3.396-1.703,6.671-3.674,9.843-5.821
		c3.273-2.216,6.558-4.413,9.665-6.85c7.837-6.144,15.204-12.812,21.939-20.16c0.261-0.286,0.447-0.938,0.96-0.551
		c0.376,0.284-0.031,0.724-0.219,1.037c-3.285,5.491-6.89,10.74-11.413,15.316c-3.806,3.849-7.555,7.756-11.329,11.636
		c-1.08,1.11-1.101,1.735,0.038,2.771c3.424,3.115,7.564,4.48,12.095,4.753c5.811,0.35,11.349-1.042,16.629-3.24
		c3.767-1.569,7.274-3.745,10.474-6.336c9.9-8.021,16.499-18.141,19.396-30.597c0.569-2.447,0.328-4.954,0.319-7.436
		C283.745,304.006,283.997,301.176,283.269,298.093z"/>
	<path fill-rule="evenodd" clip-rule="evenodd" fill="#EC4942" d="M248.272,200.797c0.011-0.681,0.431-0.74,0.698-0.868
		c6.591-3.15,13.396-4.099,20.349-1.439c3.946,1.51,7.029,4.2,9.734,7.539c3.938,4.862,6.139,10.428,7.709,16.333
		c0.766,2.879,0.961,5.871,1.191,8.82c0.311,3.97,0.478,7.962-0.765,11.881c-0.513,1.614-1.372,2.994-2.137,4.452
		c-0.48,0.911-0.97,0.266-1.405,0.026c-6.181-3.414-12.326-6.893-18.531-10.26c-8.311-4.51-16.513-9.191-24.146-14.797
		c-0.845-0.62-1.366-0.5-2.11,0.132c-3.569,3.027-7.233,5.941-10.774,9c-9.129,7.889-19.319,13.897-30.686,18.011
		c-5.699,2.063-11.441,3.824-17.424,4.756c-2.067,0.322-4.161,0.468-6.241,0.713c-0.566,0.066-0.8-0.129-0.793-0.707
		c0.033-3.12,0.069-6.24,0.059-9.36c-0.002-0.851,0.548-0.896,1.135-1.001c5.663-1.014,11.16-2.683,16.657-4.323
		c8.58-2.563,16.521-6.451,24.119-11.221c8.987-5.644,16.911-12.494,24.312-20.013c0.98-0.997,1.416-0.984,2.42,0.045
		c5.617,5.75,12.175,10.329,18.863,14.716c6.767,4.438,13.879,8.261,21.203,11.705c0.993,0.467,1.135,0.222,1.402-0.693
		c0.491-1.683-0.047-3.294-0.111-4.932c-0.191-4.85-1.214-9.559-2.804-14.125c-1.072-3.08-2.418-6.076-4.411-8.684
		c-1.249-1.638-3.043-2.803-4.812-3.751c-4.331-2.321-8.854-3.898-13.979-3.16C254.118,200.005,251.243,200.533,248.272,200.797z"/>
	<path fill-rule="evenodd" clip-rule="evenodd" fill="#4C8ECA" d="M312.544,248.703c-0.21,3.006-0.439,6.066-0.625,9.128
		c-0.057,0.945-0.382,1.091-1.262,0.779c-4.952-1.757-9.917-3.482-14.897-5.16c-0.847-0.286-0.988-0.646-0.83-1.482
		c1.261-6.672,1.845-13.407,1.594-20.197c-0.192-5.238-1.188-10.34-3.137-15.21c-1.714-4.284-4.172-8.125-7.477-11.375
		c-0.364-0.357-0.672-0.662-0.346-1.061c0.329-0.404,0.709-0.041,0.987,0.22c3.109,2.927,6.468,5.584,8.496,9.533
		c2.34,4.556,3.691,9.38,4.719,14.355c0.92,4.453,1.431,8.933,1.42,13.471c-0.002,0.921,0.324,1.394,1.178,1.734
		c3.119,1.243,6.205,2.57,9.316,3.835C312.343,247.542,312.821,247.839,312.544,248.703z"/>
</g>
</svg>
