<?xml version="1.0" encoding="utf-8"?>
<!-- Generator: Adobe Illustrator 16.0.0, SVG Export Plug-In . SVG Version: 6.00 Build 0)  -->
<!DOCTYPE svg PUBLIC "-//W3C//DTD SVG 1.1//EN" "http://www.w3.org/Graphics/SVG/1.1/DTD/svg11.dtd">
<svg version="1.1" id="Layer_1" xmlns="http://www.w3.org/2000/svg" xmlns:xlink="http://www.w3.org/1999/xlink" x="0px" y="0px"
	 width="595.28px" height="841.89px" viewBox="0 0 595.28 841.89" enable-background="new 0 0 595.28 841.89" xml:space="preserve">
<g>
	<path fill-rule="evenodd" clip-rule="evenodd" fill="#EC4942" d="M352.398,260.455c-12.238,2.143-22.555,6.305-28.363,18.246
		c-3.811,7.833-7.07,15.852-5.632,24.759c0.987,6.108,2.38,12.182,3.059,18.325c0.753,6.81,0.584,13.818-3.236,19.742
		c-4.079,6.319-12.213,9.58-19.536,5.87c-7.627-3.864-10.84-11.414-9.593-22.115c0.755-6.474,2.831-12.556,5.496-18.409
		c4.392-9.661,7.48-19.787,8.568-30.343c1.117-10.842-1.023-21.533-2.824-32.226c-1.792-10.633-8.78-17.656-15.478-25.24
		c0.838,5.3,1.542,10.631,2.543,15.897c2.693,14.147-0.188,27.177-6.521,39.808c-4.428,8.839-12.229,14.738-17.41,22.867
		c-1.484,2.324-3.341,4.419-5.173,6.477c-9.119,10.256-12.358,22.601-12.365,36.209c-0.01,15.39,2.271,30.65,2.123,46.066
		c-0.076,8.206-7.348,23.86-18.072,26.144c-6.045,1.288-12.756-1.914-15.728-7.644c-5.35-10.3-5.172-21.313-4.303-32.42
		c0.494-6.305,0.939-12.663,2.15-18.846c1.196-6.131,2.648-12.274,4.89-18.258c-6.123,3.403-10.676,8.5-14.627,14.146
		c-10.983,15.688-13.769,33.737-14.062,52.572c-0.186,12.123,0.516,24.099,3.548,35.828c2.401,9.289,7.687,17.166,12.128,25.442
		c1.038,1.933,2.902,1.356,4.697,0.558c11.313-5.024,21.482-12.117,31.572-19.22c15.302-10.77,29.211-23.418,43.15-35.974
		c3.095-2.79,5.732-6.118,8.618-9.163c0.772-0.819,1.285-2.072,3.093-2.059c-2.085,3.734-4.518,6.891-6.999,10.009
		c-17.545,22.041-37.823,41.15-59.847,58.17c-12.708,9.821-26.249,18.664-40.882,25.137c-11.17,4.938-22.189,10.627-34.532,12.299
		c-9.483,1.278-18.865,2.293-28.312-0.432c-18.156-5.229-32.532-19.141-35.932-39.208c-3.547-20.905,0.456-40.366,8.263-59.416
		c0.346-0.846,0.506-1.913,1.896-2.169c0.225,2.615-0.782,4.947-1.236,7.343c-3.946,20.83-4.824,41.673,1.938,62
		c4.43,13.321,14.128,22.072,27.416,24.691c8.593,1.688,17.61,0.057,26.055-3.056c9.415-3.467,18.744-7.13,27.428-12.37
		c4.772-2.879,5.175-3.398,2.39-8.279c-20.289-35.532-31.89-74.661-43.831-113.627c-6.151-20.07-11.181-40.476-14.394-61.299
		c-0.629-4.062-0.382-8.266-0.661-12.395c-0.154-2.236,1.201-2.011,2.657-2.302c12.518-2.49,25.41-2.832,37.677-6.661
		c13.685-4.272,26.848-9.904,39.671-16.524c6.701-3.46,13.56-6.627,20.186-10.277c15.668-8.628,30.022-19.196,43.417-31.24
		c5.297-4.762,10.164-10.087,16.309-13.827c1.932-1.175,3.289-1.53,5.393-0.169c12.023,7.764,24.293,15.12,36.226,23.022
		c12.418,8.224,25.174,15.847,37.943,23.436c6.649,3.948,13.75,7.071,20.659,10.541c1.187,0.596,2.072,0.864,1.646,2.845
		c-2.442,11.321-7.17,21.26-15.22,29.492c-5.589,5.714-12.38,8.078-19.904,7.307c-3.942-0.402-7.412-2.903-9.02-7.249
		c-1.447-3.922-2.266-7.954-2.201-12.127c0.046-2.96,0.837-5.659,2.913-7.971C345.722,269.283,349.191,265.322,352.398,260.455z"/>
	<path fill-rule="evenodd" clip-rule="evenodd" fill="#4B8DCA" d="M389.422,375.178c-3.439,7.357-6.393,14.223-9.817,20.825
		c-3.885,7.489-7.825,14.99-14.173,20.749c-3.775,3.425-7.991,3.949-12.486,2.461c-4.785-1.584-7.101-5.115-7.232-10.434
		c-0.108-4.272,0.861-8.14,2.544-11.977c6.733-15.354,15.627-29.443,23.955-43.854c10.808-18.708,22.175-37.076,32.467-56.103
		c3.205-5.925,5.754-12.25,8.365-18.497c0.984-2.36,2.141-2.807,4.322-1.946c11.492,4.549,23.012,9.03,34.515,13.533
		c0.921,0.358,2.014,0.223,1.536,2.083c-2.541,9.882-4.124,20.002-5.444,30.094c-4.94,37.827-19.392,72.043-36.638,105.192
		c-13.962,26.837-29.714,52.594-46.717,77.438c-8.198,11.983-18.524,22.38-27.574,33.756
		c-10.998,13.834-23.439,25.971-37.397,36.516c-4.104,3.104-8.607,5.489-12.854,8.325c-2.018,1.348-3.269,0.212-4.689-0.899
		c-10.985-8.598-21.876-17.279-31.87-27.157c-10.144-10.02-20.448-19.841-28.663-31.695c-2.034-2.931-4.271-3.217-7.309-1.821
		c-9.288,4.271-18.479,8.729-28.213,11.941c-17.053,5.625-34.103,6.221-51.246,0.877c-6.189-1.929-12.358-4.82-17.078-9.022
		c-4.685-4.175-9.832-8.266-13.372-13.803c-0.406-0.635-0.995-1.295-0.524-1.939c0.722-0.986,1.649-0.534,2.487,0.038
		c5.267,3.62,10.824,6.683,16.479,9.595c10.871,5.588,22.313,6.602,34.255,5.565c15.852-1.375,30.332-7.143,44.273-14.378
		c8.199-4.261,16.106-9.186,23.763-14.55c7.902-5.54,15.831-11.033,23.335-17.119c18.922-15.356,36.706-32.021,52.967-50.388
		c0.633-0.714,1.08-2.343,2.319-1.376c0.907,0.709-0.073,1.807-0.527,2.588c-7.93,13.728-16.638,26.849-27.557,38.281
		c-9.19,9.623-18.24,19.386-27.351,29.083c-2.608,2.774-2.656,4.335,0.092,6.928c8.267,7.784,18.262,11.198,29.199,11.879
		c14.029,0.874,27.403-2.606,40.152-8.097c9.093-3.921,17.559-9.358,25.286-15.838c23.901-20.045,39.836-45.338,46.826-76.472
		c1.374-6.114,0.795-12.379,0.771-18.581C390.576,389.957,391.183,382.882,389.422,375.178z"/>
	<path fill-rule="evenodd" clip-rule="evenodd" fill="#EC4942" d="M304.929,132.006c0.028-1.701,1.043-1.851,1.687-2.168
		c15.915-7.874,32.342-10.245,49.13-3.597c9.525,3.773,16.971,10.497,23.502,18.842c9.512,12.152,14.822,26.062,18.613,40.823
		c1.851,7.194,2.317,14.671,2.875,22.043c0.752,9.921,1.152,19.9-1.849,29.693c-1.237,4.034-3.308,7.485-5.157,11.127
		c-1.161,2.276-2.34,0.664-3.392,0.065c-14.921-8.534-29.76-17.228-44.74-25.646c-20.064-11.271-39.868-22.969-58.3-36.982
		c-2.04-1.549-3.294-1.249-5.093,0.331c-8.614,7.564-17.462,14.849-26.01,22.494c-22.042,19.717-46.644,34.731-74.088,45.013
		c-13.761,5.158-27.623,9.558-42.07,11.889c-4.989,0.807-10.044,1.17-15.068,1.783c-1.366,0.166-1.928-0.324-1.915-1.766
		c0.081-7.798,0.169-15.598,0.143-23.396c-0.007-2.127,1.323-2.238,2.743-2.5c13.671-2.535,26.945-6.704,40.216-10.808
		c20.713-6.403,39.887-16.12,58.23-28.043c21.699-14.104,40.832-31.224,58.698-50.016c2.369-2.491,3.416-2.46,5.843,0.112
		c13.56,14.37,29.396,25.813,45.544,36.777c16.334,11.095,33.508,20.648,51.187,29.255c2.402,1.168,2.744,0.555,3.389-1.732
		c1.186-4.205-0.114-8.232-0.27-12.323c-0.46-12.122-2.933-23.892-6.771-35.304c-2.587-7.696-5.836-15.186-10.646-21.704
		c-3.015-4.094-7.346-7.006-11.62-9.376c-10.452-5.802-21.376-9.743-33.747-7.898C319.045,130.027,312.1,131.347,304.929,132.006z"
		/>
	<path fill-rule="evenodd" clip-rule="evenodd" fill="#373334" d="M494.108,651.142c0-9.376-0.003-18.75,0.006-28.12
		c0-1.286-0.391-2.723,1.768-2.646c12.095,0.442,24.276-1.164,36.275,0.847c11.342,1.899,20.002,8.171,23.368,20.014
		c3.326,11.707,1.732,22.758-7.088,31.676c-6.096,6.161-13.833,8.667-22.162,8.872c-9.761,0.247-19.53-0.012-29.289,0.113
		c-2.272,0.03-2.971-0.565-2.934-2.991C494.192,669.654,494.108,660.402,494.108,651.142z M514.12,650.752c0,1.948,0,3.896,0,5.836
		c0,9.652,0,9.652,9.406,9.046c8.152-0.527,13.103-6.002,13.103-14.513c0-8.503-4.945-14.014-13.101-14.49
		c-2.341-0.142-4.701,0.08-7.041-0.058c-1.875-0.111-2.456,0.615-2.401,2.51C514.203,642.968,514.12,646.864,514.12,650.752z"/>
	<path fill-rule="evenodd" clip-rule="evenodd" fill="#373435" d="M170.293,681.841c-7.168,0-13.713-0.047-20.256,0.035
		c-1.516,0.021-2.021-1.004-2.667-1.986c-2.509-3.827-5.173-7.561-7.436-11.538c-1.471-2.587-3.626-2.018-5.551-1.761
		c-2.156,0.293-0.962,2.391-1.038,3.622c-0.192,3.032-0.151,6.098-0.031,9.139c0.07,1.8-0.314,2.593-2.285,2.536
		c-5.176-0.139-10.364-0.144-15.541,0c-2.008,0.059-2.261-0.807-2.257-2.567c0.05-18.766,0.059-37.544-0.01-56.311
		c-0.009-2.053,0.52-2.679,2.536-2.659c9.771,0.109,19.549-0.101,29.318,0.094c11.246,0.22,20.108,6.578,22.928,16.068
		c2.917,9.806-0.06,19.348-8.107,25.099c-1.77,1.263-1.657,2.001-0.592,3.568C162.919,670.516,166.418,675.94,170.293,681.841z
		 M133.265,643.236c0,8.26,0,8.26,8.043,7.369c0.469-0.055,0.94-0.059,1.406-0.134c4.739-0.729,7.227-5.166,5.396-9.735
		c-1.53-3.824-4.745-4.271-8.198-4.265C133.265,636.476,133.265,636.448,133.265,643.236z"/>
	<path fill-rule="evenodd" clip-rule="evenodd" fill="#383435" d="M301.211,650.862c0-9.27,0.048-18.531-0.039-27.794
		c-0.021-1.978,0.367-2.787,2.478-2.717c5.059,0.152,10.129,0.164,15.188-0.004c2.178-0.072,2.474,0.835,2.436,2.76
		c-0.109,5.486,0.04,10.972-0.079,16.458c-0.044,2.074,0.586,2.757,2.601,2.695c4.47-0.135,8.95-0.124,13.421,0
		c1.851,0.05,2.453-0.554,2.416-2.474c-0.1-5.483,0.041-10.978-0.073-16.457c-0.042-2.059,0.234-3.086,2.619-2.988
		c5.06,0.196,10.128,0.153,15.191,0.01c2.049-0.054,2.545,0.65,2.537,2.696c-0.069,18.772-0.063,37.542-0.002,56.315
		c0.002,1.859-0.416,2.571-2.34,2.525c-5.179-0.129-10.366-0.154-15.543,0.01c-2.161,0.06-2.494-0.842-2.459-2.777
		c0.103-5.726-0.043-11.465,0.078-17.186c0.041-2.067-0.556-2.756-2.578-2.685c-4.353,0.14-8.716,0.155-13.07-0.003
		c-2.157-0.077-2.868,0.573-2.806,2.861c0.148,5.606-0.081,11.22,0.107,16.823c0.086,2.479-0.731,3.039-2.966,2.961
		c-4.821-0.167-9.658-0.184-14.479,0.011c-2.275,0.092-2.708-0.726-2.684-2.89C301.272,669.627,301.211,660.248,301.211,650.862z"/>
	<path fill-rule="evenodd" clip-rule="evenodd" fill="#383435" d="M172.614,650.844c0-9.129,0.064-18.268-0.045-27.396
		c-0.026-2.244,0.352-3.137,2.816-3.111c14.236,0.132,28.471,0.129,42.704,0.004c2.396-0.02,2.987,0.761,2.853,3.07
		c-0.178,3.155-0.193,6.342,0.005,9.493c0.154,2.498-0.538,3.363-3.081,3.299c-7.525-0.168-15.064,0.128-22.582-0.144
		c-3.248-0.117-2.771,1.716-2.933,3.81c-0.191,2.478,0.457,3.354,3.024,3.272c6.346-0.206,12.703,0.021,19.055-0.112
		c2.175-0.047,3.182,0.381,2.989,2.93c-0.231,3.024-0.203,6.093-0.009,9.125c0.158,2.483-0.514,3.377-3.067,3.299
		c-6.467-0.188-12.946,0.114-19.408-0.138c-3.285-0.13-2.584,1.979-2.493,3.756c0.087,1.756-1.115,4.25,2.489,4.157
		c7.994-0.195,15.999,0.024,23.994-0.113c2.38-0.039,3.394,0.519,3.209,3.198c-0.226,3.269-0.209,6.584-0.004,9.859
		c0.15,2.365-0.726,2.795-2.808,2.785c-14.704-0.081-29.407-0.104-44.114,0.016c-2.323,0.021-2.66-0.827-2.636-2.928
		C172.669,669.602,172.614,660.225,172.614,650.844z"/>
	<path fill-rule="evenodd" clip-rule="evenodd" fill="#383435" d="M391.655,651.093c0-9.255,0.088-18.517-0.059-27.764
		c-0.035-2.452,0.698-2.998,2.944-2.979c14.237,0.1,28.473,0.1,42.704-0.004c2.171-0.016,2.873,0.537,2.744,2.822
		c-0.193,3.397-0.196,6.826,0,10.224c0.135,2.371-0.778,2.828-2.843,2.797c-7.648-0.107-15.301,0.138-22.941-0.13
		c-3.394-0.111-2.644,1.962-2.789,3.933c-0.164,2.186,0.223,3.23,2.763,3.149c6.469-0.206,12.944,0.05,19.409-0.129
		c2.387-0.066,2.995,0.74,2.865,3.064c-0.187,3.157-0.188,6.339,0,9.493c0.141,2.352-0.739,2.839-2.837,2.8
		c-6.347-0.135-12.71,0.178-19.051-0.146c-3.31-0.169-3.244,1.52-3.153,3.902c0.087,2.176-0.516,4.217,3.033,4.07
		c7.752-0.315,15.527,0.044,23.286-0.171c2.874-0.077,3.637,0.898,3.443,3.705c-0.228,3.269-0.135,6.572-0.022,9.859
		c0.059,1.755-0.51,2.293-2.199,2.286c-15.059-0.062-30.116-0.075-45.175,0.017c-2.144,0.017-2.152-1.054-2.145-2.667
		C391.678,669.845,391.655,660.468,391.655,651.093z"/>
	<path fill-rule="evenodd" clip-rule="evenodd" fill="#393536" d="M269.684,683.346c-7.828-0.156-15.402-1.489-22.631-4.784
		c-2.216-1.011-2.748-2.088-1.574-4.394c1.529-3.002,2.896-6.121,4.008-9.313c0.857-2.452,1.649-3.102,4.174-1.777
		c6.067,3.162,12.576,4.721,19.437,4.114c1.04-0.091,2.081-0.355,3.072-0.686c1.073-0.356,1.825-1.12,1.874-2.379
		c0.054-1.29-0.741-2.029-1.73-2.517c-2.572-1.262-5.386-1.688-8.112-2.416c-3.634-0.972-7.336-1.762-10.871-3.029
		c-6.127-2.194-10.803-6.091-11.754-13.198c-1.053-7.915,1.408-14.457,7.984-18.942c7.813-5.336,16.607-5.645,25.511-4.791
		c4.922,0.461,9.7,1.704,14.26,3.837c1.771,0.83,2.247,1.612,1.424,3.49c-1.55,3.54-3.025,7.121-4.304,10.769
		c-0.671,1.912-1.497,2.016-3.086,1.235c-5.056-2.502-10.352-3.982-16.009-3.567c-1.159,0.081-2.316,0.354-3.443,0.658
		c-1.492,0.394-2.578,1.32-2.576,3.033c0.003,1.62,1.261,2.357,2.501,2.686c4.32,1.153,8.692,2.084,13.022,3.211
		c4.225,1.098,8.411,2.34,11.836,5.365c8.018,7.09,7.089,20.712-1.939,27.562C284.484,682.277,277.237,683.421,269.684,683.346z"/>
	<path fill-rule="evenodd" clip-rule="evenodd" fill="#373334" d="M35.54,650.927c0-9.252,0.075-18.517-0.055-27.763
		c-0.032-2.28,0.589-2.833,2.75-2.813c14.35,0.104,28.703,0.089,43.055,0.013c1.952-0.013,2.671,0.492,2.574,2.605
		c-0.162,3.52-0.163,7.067,0,10.587c0.101,2.182-0.729,2.622-2.646,2.597c-7.526-0.098-15.059,0.063-22.583-0.093
		c-2.485-0.051-3.168,0.724-3.138,3.274c0.086,7.276-0.025,7.276,6.96,7.276c5.058,0,10.121,0.127,15.171-0.058
		c2.253-0.078,2.813,0.684,2.703,2.886c-0.168,3.4-0.166,6.82,0,10.223c0.105,2.156-0.695,2.629-2.615,2.592
		c-6.467-0.107-12.94,0.046-19.407-0.087c-2.155-0.046-2.877,0.574-2.801,2.858c0.165,4.747-0.049,9.499,0.096,14.246
		c0.063,2.103-0.606,2.671-2.573,2.617c-4.937-0.133-9.884-0.171-14.818,0.01c-2.21,0.083-2.754-0.606-2.724-2.842
		C35.61,669.678,35.54,660.304,35.54,650.927z"/>
	<path fill-rule="evenodd" clip-rule="evenodd" fill="#4C8ECA" d="M460.109,251.739c-0.508,7.513-1.066,15.16-1.512,22.813
		c-0.139,2.363-0.922,2.729-3.049,1.947c-11.955-4.394-23.943-8.702-35.965-12.897c-2.047-0.714-2.386-1.616-2.004-3.706
		c3.044-16.675,4.454-33.507,3.849-50.476c-0.466-13.091-2.868-25.841-7.571-38.015c-4.142-10.707-10.077-20.305-18.054-28.43
		c-0.877-0.893-1.62-1.652-0.836-2.651c0.796-1.009,1.719-0.1,2.387,0.551c7.506,7.317,15.617,13.958,20.514,23.825
		c5.65,11.389,8.909,23.445,11.393,35.877c2.22,11.13,3.454,22.325,3.43,33.67c-0.006,2.301,0.781,3.482,2.841,4.334
		c7.533,3.105,14.986,6.421,22.496,9.583C459.62,248.835,460.778,249.579,460.109,251.739z"/>
	<path fill-rule="evenodd" clip-rule="evenodd" fill="#373334" d="M445.354,650.739c0-9.131,0.082-18.265-0.055-27.391
		c-0.036-2.398,0.619-3.089,2.921-3.001c4.7,0.183,9.413,0.205,14.105-0.006c2.46-0.109,3.134,0.608,3.108,3.183
		c-0.133,13.03,0.009,26.053-0.123,39.074c-0.025,2.574,0.657,3.274,3.121,3.214c6.936-0.178,13.879,0.069,20.81-0.123
		c2.552-0.072,3.196,0.769,3.033,3.257c-0.208,3.152-0.208,6.336,0,9.489c0.17,2.58-0.364,3.522-3.178,3.489
		c-13.638-0.18-27.28-0.145-40.919-0.026c-2.364,0.026-2.906-0.72-2.872-3.049C445.429,669.48,445.354,660.108,445.354,650.739z"/>
	<path fill-rule="evenodd" clip-rule="evenodd" fill="#373334" d="M107.138,651.494c0,9.132-0.084,18.27,0.056,27.403
		c0.037,2.412-0.633,3.084-2.926,3.001c-4.936-0.181-9.883-0.139-14.821-0.01c-1.862,0.04-2.373-0.543-2.366-2.453
		c0.065-18.88,0.066-37.76-0.001-56.634c-0.006-1.935,0.536-2.485,2.381-2.438c5.055,0.123,10.118,0.131,15.174-0.006
		c2-0.059,2.568,0.573,2.546,2.642C107.08,632.493,107.136,641.993,107.138,651.494z"/>
	<path fill-rule="evenodd" clip-rule="evenodd" fill="#373334" d="M365.512,650.974c0-9.259,0.069-18.511-0.047-27.77
		c-0.03-2.195,0.464-2.945,2.703-2.863c5.054,0.187,10.117,0.125,15.172,0.025c1.642-0.025,2.23,0.42,2.223,2.222
		c-0.056,19.001-0.048,37.997-0.002,57.002c0.002,1.707-0.422,2.328-2.154,2.286c-5.059-0.103-10.125-0.201-15.173,0.036
		c-2.58,0.119-2.778-1.03-2.758-3.17C365.563,669.482,365.512,660.225,365.512,650.974z"/>
</g>
</svg>
